<svg width="31" height="31" viewBox="0 0 31 31" fill="none" xmlns="http://www.w3.org/2000/svg">
<path d="M24.5417 3.875H6.45833C5.0316 3.875 3.875 5.0316 3.875 6.45833V24.5417C3.875 25.9684 5.0316 27.125 6.45833 27.125H24.5417C25.9684 27.125 27.125 25.9684 27.125 24.5417V6.45833C27.125 5.0316 25.9684 3.875 24.5417 3.875Z" stroke="#525252" stroke-width="1.3" stroke-linecap="round" stroke-linejoin="round"/>
<path d="M10.9792 12.9167C12.0492 12.9167 12.9167 12.0493 12.9167 10.9792C12.9167 9.9092 12.0492 9.04175 10.9792 9.04175C9.90911 9.04175 9.04166 9.9092 9.04166 10.9792C9.04166 12.0493 9.90911 12.9167 10.9792 12.9167Z" stroke="#525252" stroke-width="1.3" stroke-linecap="round" stroke-linejoin="round"/>
<path d="M27.125 19.3751L20.6667 12.9167L6.45833 27.1251" stroke="#525252" stroke-width="1.3" stroke-linecap="round" stroke-linejoin="round"/>
</svg>
